<?xml version="1.0" encoding="UTF-8"?><!DOCTYPE svg PUBLIC "-//W3C//DTD SVG 1.1//EN" "http://www.w3.org/Graphics/SVG/1.1/DTD/svg11.dtd"><svg xmlns="http://www.w3.org/2000/svg" xmlns:xlink="http://www.w3.org/1999/xlink"><defs>
        <linearGradient id="paint0_linear_1_590" x1="7.26562" y1="21.25" x2="7.26562" y2="31.875" gradientUnits="userSpaceOnUse">
            <stop stop-color="#549994"/>
            <stop offset="1" stop-color="#408782"/>
        </linearGradient>
        <linearGradient id="paint1_linear_1_590" x1="18.125" y1="12.75" x2="18.125" y2="31.875" gradientUnits="userSpaceOnUse">
            <stop stop-color="#549994"/>
            <stop offset="1" stop-color="#408782"/>
        </linearGradient>
        <linearGradient id="paint2_linear_1_590" x1="28.9844" y1="2.125" x2="28.9844" y2="31.875" gradientUnits="userSpaceOnUse">
            <stop stop-color="#549994"/>
            <stop offset="1" stop-color="#408782"/>
        </linearGradient>
    
        <linearGradient id="paint0_linear_1_490" x1="15" y1="0.595459" x2="15" y2="30.0975" gradientUnits="userSpaceOnUse">
            <stop stop-color="#549994"/>
            <stop offset="1" stop-color="#408782"/>
        </linearGradient>
    
        <clipPath id="clip0_1_598">
            <rect width="34.75" height="36" fill="white" transform="translate(0.25)"/>
        </clipPath>
    
        <linearGradient id="paint0_linear_1_687" x1="18.25" y1="3.36304" x2="18.25" y2="31.5001" gradientUnits="userSpaceOnUse">
            <stop stop-color="#549994"/>
            <stop offset="1" stop-color="#408782"/>
        </linearGradient>
        <clipPath id="clip0_1_687">
            <rect width="36" height="36" fill="white" transform="translate(0.25)"/>
        </clipPath>
    
        <clipPath id="clip0_1_491">
            <rect width="36" height="36" fill="white"/>
        </clipPath>
    
        <linearGradient id="paint0_linear_1_590" x1="7.26562" y1="21.25" x2="7.26562" y2="31.875" gradientUnits="userSpaceOnUse">
            <stop stop-color="#549994"/>
            <stop offset="1" stop-color="#408782"/>
        </linearGradient>
        <linearGradient id="paint1_linear_1_590" x1="18.125" y1="12.75" x2="18.125" y2="31.875" gradientUnits="userSpaceOnUse">
            <stop stop-color="#549994"/>
            <stop offset="1" stop-color="#408782"/>
        </linearGradient>
        <linearGradient id="paint2_linear_1_590" x1="28.9844" y1="2.125" x2="28.9844" y2="31.875" gradientUnits="userSpaceOnUse">
            <stop stop-color="#549994"/>
            <stop offset="1" stop-color="#408782"/>
        </linearGradient>
    </defs><symbol id="bar-outline" viewBox="0 0 34 34">
    <path fill-rule="evenodd" clip-rule="evenodd" d="M8.5 23.375H4.25V29.75H8.5V23.375ZM19.125 14.875H14.875V29.75H19.125V14.875ZM29.75 4.25H25.5V29.75H29.75V4.25ZM25.5 2.125C24.9364 2.125 24.3959 2.34888 23.9974 2.7474C23.5989 3.14591 23.375 3.68641 23.375 4.25V29.75C23.375 30.3136 23.5989 30.8541 23.9974 31.2526C24.3959 31.6511 24.9364 31.875 25.5 31.875H29.75C30.3136 31.875 30.8541 31.6511 31.2526 31.2526C31.6511 30.8541 31.875 30.3136 31.875 29.75V4.25C31.875 3.68641 31.6511 3.14591 31.2526 2.7474C30.8541 2.34888 30.3136 2.125 29.75 2.125H25.5ZM12.75 14.875C12.75 14.3114 12.9739 13.7709 13.3724 13.3724C13.7709 12.9739 14.3114 12.75 14.875 12.75H19.125C19.6886 12.75 20.2291 12.9739 20.6276 13.3724C21.0261 13.7709 21.25 14.3114 21.25 14.875V29.75C21.25 30.3136 21.0261 30.8541 20.6276 31.2526C20.2291 31.6511 19.6886 31.875 19.125 31.875H14.875C14.3114 31.875 13.7709 31.6511 13.3724 31.2526C12.9739 30.8541 12.75 30.3136 12.75 29.75V14.875ZM2.125 23.375C2.125 22.8114 2.34888 22.2709 2.7474 21.8724C3.14591 21.4739 3.68641 21.25 4.25 21.25H8.5C9.06359 21.25 9.60409 21.4739 10.0026 21.8724C10.4011 22.2709 10.625 22.8114 10.625 23.375V29.75C10.625 30.3136 10.4011 30.8541 10.0026 31.2526C9.60409 31.6511 9.06359 31.875 8.5 31.875H4.25C3.68641 31.875 3.14591 31.6511 2.7474 31.2526C2.34888 30.8541 2.125 30.3136 2.125 29.75V23.375Z" fill="#AAAAAA"/>
</symbol><symbol id="bar" viewBox="0 0 36 34">
    <path d="M9.4375 21.25H5.09375C3.89426 21.25 2.92188 22.2014 2.92188 23.375V29.75C2.92188 30.9236 3.89426 31.875 5.09375 31.875H9.4375C10.637 31.875 11.6094 30.9236 11.6094 29.75V23.375C11.6094 22.2014 10.637 21.25 9.4375 21.25Z" fill="url(#paint0_linear_1_590)"/>
    <path d="M20.2969 12.75H15.9531C14.7536 12.75 13.7812 13.7014 13.7812 14.875V29.75C13.7812 30.9236 14.7536 31.875 15.9531 31.875H20.2969C21.4964 31.875 22.4688 30.9236 22.4688 29.75V14.875C22.4688 13.7014 21.4964 12.75 20.2969 12.75Z" fill="url(#paint1_linear_1_590)"/>
    <path d="M31.1562 2.125H26.8125C25.613 2.125 24.6406 3.07639 24.6406 4.25V29.75C24.6406 30.9236 25.613 31.875 26.8125 31.875H31.1562C32.3557 31.875 33.3281 30.9236 33.3281 29.75V4.25C33.3281 3.07639 32.3557 2.125 31.1562 2.125Z" fill="url(#paint2_linear_1_590)"/>
    
</symbol><symbol id="home-outline" viewBox="0 0 36 36">
    <path d="M29.7083 30V13.698L18.125 6.49795L6.54168 13.698V30H12.3333V25.875C12.3333 24.2837 12.9435 22.7575 14.0297 21.6323C15.1158 20.5071 16.589 19.875 18.125 19.875C19.6611 19.875 21.1342 20.5071 22.2203 21.6323C23.3065 22.7575 23.9167 24.2837 23.9167 25.875V30H29.7083ZM21.0208 33V25.875C21.0208 25.0793 20.7157 24.3162 20.1727 23.7536C19.6296 23.191 18.893 22.875 18.125 22.875C17.357 22.875 16.6204 23.191 16.0773 23.7536C15.5343 24.3162 15.2292 25.0793 15.2292 25.875V33H6.54168C5.77365 33 5.03709 32.6839 4.49401 32.1213C3.95094 31.5587 3.64584 30.7956 3.64584 30V13.698C3.64584 13.1799 3.77533 12.6707 4.02171 12.2198C4.26809 11.769 4.62297 11.392 5.05177 11.1255L16.6351 3.92545C17.0852 3.6457 17.6002 3.49792 18.125 3.49792C18.6499 3.49792 19.1649 3.6457 19.6149 3.92545L31.1982 11.1255C31.6271 11.392 31.9819 11.769 32.2283 12.2198C32.4747 12.6707 32.6042 13.1799 32.6042 13.698V30C32.6042 30.7956 32.2991 31.5587 31.756 32.1213C31.2129 32.6839 30.4764 33 29.7083 33H21.0208Z" fill="#AAAAAA"/>
</symbol><symbol id="home" viewBox="0 0 30 31">
    <path d="M19.5 30.0975V22.5975C19.5 21.404 19.0259 20.2594 18.182 19.4155C17.3381 18.5716 16.1935 18.0975 15 18.0975C13.8065 18.0975 12.6619 18.5716 11.818 19.4155C10.9741 20.2594 10.5 21.404 10.5 22.5975V30.0975H3C2.20435 30.0975 1.44129 29.7814 0.87868 29.2188C0.316071 28.6562 1.38884e-10 27.8931 1.38884e-10 27.0975V10.7955C-4.98411e-06 10.2774 0.134146 9.7682 0.38939 9.31738C0.644633 8.86657 1.01227 8.48953 1.4565 8.22299L13.4565 1.02299C13.9228 0.743235 14.4563 0.595459 15 0.595459C15.5437 0.595459 16.0773 0.743235 16.5435 1.02299L28.5435 8.22299C28.9877 8.48953 29.3554 8.86657 29.6106 9.31738C29.8659 9.7682 30 10.2774 30 10.7955V27.0975C30 27.8931 29.6839 28.6562 29.1213 29.2188C28.5587 29.7814 27.7957 30.0975 27 30.0975H19.5Z" fill="url(#paint0_linear_1_490)"/>
    
</symbol><symbol id="user-outline" viewBox="0 0 35 36">
    <g clip-path="url(#clip0_1_598)">
        <path d="M17.625 22.5C22.423 22.5 26.3125 18.4706 26.3125 13.5C26.3125 8.52944 22.423 4.5 17.625 4.5C12.827 4.5 8.9375 8.52944 8.9375 13.5C8.9375 18.4706 12.827 22.5 17.625 22.5Z" stroke="#AAAAAA" stroke-width="2.25" stroke-miterlimit="10"/>
        <path d="M4.45801 30.375C5.79227 27.9804 7.71152 25.9918 10.0228 24.6092C12.3341 23.2266 14.9561 22.4987 17.625 22.4987C20.2939 22.4987 22.9159 23.2266 25.2272 24.6092C27.5385 25.9918 29.4577 27.9804 30.792 30.375" stroke="#AAAAAA" stroke-width="2.25" stroke-linecap="round" stroke-linejoin="round"/>
    </g>
    
</symbol><symbol id="user" viewBox="0 0 37 36">
    <g clip-path="url(#clip0_1_687)">
        <path d="M32.8609 29.8125C30.7617 26.1964 27.4017 23.4823 23.4249 22.1906C25.3311 21.0571 26.8124 19.3292 27.6412 17.2722C28.4701 15.2152 28.6006 12.943 28.0129 10.8046C27.4251 8.66618 26.1515 6.77991 24.3878 5.43553C22.624 4.09115 20.4676 3.36304 18.2499 3.36304C16.0323 3.36304 13.8759 4.09115 12.1121 5.43553C10.3484 6.77991 9.07479 8.66618 8.48703 10.8046C7.89926 12.943 8.02984 15.2152 8.85868 17.2722C9.68753 19.3292 11.1688 21.0571 13.0749 22.1906C9.09821 23.4823 5.73817 26.1964 3.63901 29.8125C3.53595 29.982 3.48145 30.1766 3.48145 30.375C3.48145 30.5734 3.53595 30.768 3.63901 30.9375C3.73517 31.1099 3.87606 31.2531 4.04684 31.3521C4.21762 31.4511 4.41194 31.5022 4.60933 31.5H31.8906C32.088 31.5022 32.2823 31.4511 32.4531 31.3521C32.6238 31.2531 32.7647 31.1099 32.8609 30.9375C32.9639 30.768 33.0185 30.5734 33.0185 30.375C33.0185 30.1766 32.9639 29.982 32.8609 29.8125Z" fill="url(#paint0_linear_1_687)"/>
    </g>
    
</symbol><symbol id="wallet-outline" viewBox="0 0 36 36">
    <g clip-path="url(#clip0_1_491)">
        <path d="M5.625 9V27C5.625 27.5967 5.86205 28.169 6.28401 28.591C6.70597 29.0129 7.27826 29.25 7.875 29.25H30.375C30.6734 29.25 30.9595 29.1315 31.1705 28.9205C31.3815 28.7095 31.5 28.4234 31.5 28.125V12.375C31.5 12.0766 31.3815 11.7905 31.1705 11.5795C30.9595 11.3685 30.6734 11.25 30.375 11.25H7.875C7.27826 11.25 6.70597 11.0129 6.28401 10.591C5.86205 10.169 5.625 9.59674 5.625 9ZM5.625 9C5.625 8.40326 5.86205 7.83097 6.28401 7.40901C6.70597 6.98705 7.27826 6.75 7.875 6.75H27" stroke="#AAAAAA" stroke-width="1.6875" stroke-linecap="round" stroke-linejoin="round"/>
        <path d="M25.3125 21.9375C26.2445 21.9375 27 21.182 27 20.25C27 19.318 26.2445 18.5625 25.3125 18.5625C24.3805 18.5625 23.625 19.318 23.625 20.25C23.625 21.182 24.3805 21.9375 25.3125 21.9375Z" fill="#AAAAAA"/>
    </g>
    
</symbol><symbol id="wallet" viewBox="0 0 36 34">
    <path d="M9.4375 21.25H5.09375C3.89426 21.25 2.92188 22.2014 2.92188 23.375V29.75C2.92188 30.9236 3.89426 31.875 5.09375 31.875H9.4375C10.637 31.875 11.6094 30.9236 11.6094 29.75V23.375C11.6094 22.2014 10.637 21.25 9.4375 21.25Z" fill="url(#paint0_linear_1_590)"/>
    <path d="M20.2969 12.75H15.9531C14.7536 12.75 13.7812 13.7014 13.7812 14.875V29.75C13.7812 30.9236 14.7536 31.875 15.9531 31.875H20.2969C21.4964 31.875 22.4688 30.9236 22.4688 29.75V14.875C22.4688 13.7014 21.4964 12.75 20.2969 12.75Z" fill="url(#paint1_linear_1_590)"/>
    <path d="M31.1562 2.125H26.8125C25.613 2.125 24.6406 3.07639 24.6406 4.25V29.75C24.6406 30.9236 25.613 31.875 26.8125 31.875H31.1562C32.3557 31.875 33.3281 30.9236 33.3281 29.75V4.25C33.3281 3.07639 32.3557 2.125 31.1562 2.125Z" fill="url(#paint2_linear_1_590)"/>
    
</symbol></svg>